<?xml version="1.0" encoding="utf-8"?>
<!-- Generator: Adobe Illustrator 22.0.1, SVG Export Plug-In . SVG Version: 6.00 Build 0)  -->
<svg version="1.1" id="Layer_1" xmlns="http://www.w3.org/2000/svg" xmlns:xlink="http://www.w3.org/1999/xlink" x="0px" y="0px"
	 viewBox="0 0 64 64" style="enable-background:new 0 0 64 64;" xml:space="preserve">
<path d="M32,14.6l1.2-2c0.7-1.3,2.3-1.7,3.6-1c1.3,0.7,1.7,2.3,1,3.6L26.4,34.7h8.2c2.6,0,4.1,3.1,3,5.3H13.7
	c-1.5,0-2.6-1.2-2.6-2.6c0-1.5,1.2-2.6,2.6-2.6h6.7L29,19.8l-2.7-4.7c-0.7-1.3-0.3-2.9,1-3.6c1.3-0.7,2.9-0.3,3.6,1L32,14.6L32,14.6
	z M21.8,42.7l-2.5,4.4c-0.7,1.3-2.3,1.7-3.6,1c-1.3-0.7-1.7-2.3-1-3.6l1.9-3.3C18.7,40.5,20.5,41,21.8,42.7L21.8,42.7z M43.6,34.7
	h6.9c1.5,0,2.6,1.2,2.6,2.6c0,1.5-1.2,2.6-2.6,2.6h-3.8l2.6,4.5c0.7,1.3,0.3,2.9-1,3.6c-1.3,0.7-2.9,0.3-3.6-1
	c-4.3-7.5-7.6-13.1-9.7-16.9c-2.2-3.8-0.6-7.6,0.9-8.9C37.6,24.3,40.2,28.8,43.6,34.7L43.6,34.7z M32,0C14.3,0,0,14.3,0,32
	s14.3,32,32,32s32-14.3,32-32S49.7,0,32,0z M59.9,32c0,15.3-12.4,27.9-27.9,27.9C16.7,59.9,4.1,47.5,4.1,32
	C4.1,16.7,16.5,4.1,32,4.1C47.3,4.1,59.9,16.5,59.9,32z" fill="#688ef3"/>
</svg>
