<svg id="组_1" data-name="组 1" xmlns="http://www.w3.org/2000/svg" width="100" height="100" viewBox="0 0 100 100">
  <metadata><?xpacket begin="﻿" id="W5M0MpCehiHzreSzNTczkc9d"?>
<x:xmpmeta xmlns:x="adobe:ns:meta/" x:xmptk="Adobe XMP Core 5.6-c142 79.160924, 2017/07/13-01:06:39        ">
   <rdf:RDF xmlns:rdf="http://www.w3.org/1999/02/22-rdf-syntax-ns#">
      <rdf:Description rdf:about=""/>
   </rdf:RDF>
</x:xmpmeta>
                                                                                                    
                                                                                                    
                                                                                                    
                                                                                                    
                                                                                                    
                                                                                                    
                                                                                                    
                                                                                                    
                                                                                                    
                                                                                                    
                                                                                                    
                                                                                                    
                                                                                                    
                                                                                                    
                                                                                                    
                                                                                                    
                                                                                                    
                                                                                                    
                                                                                                    
                                                                                                    
                           
<?xpacket end="w"?></metadata>
<defs>
    <style>
      .cls-1 {
        fill: #1ececa;
      }

      .cls-1, .cls-3 {
        fill-rule: evenodd;
      }

      .cls-2 {
        fill: none;
      }

      .cls-3 {
        fill: #9163cc;
      }
    </style>
  </defs>
  <path id="形状_2" data-name="形状 2" class="cls-1" d="M322,317.017a17.923,17.923,0,0,1,17.638,15.2h2.127a12.352,12.352,0,0,1,0,24.7h-39.53a12.352,12.352,0,0,1,0-24.7h2.127A17.923,17.923,0,0,1,322,317.017m0-4.038a21.77,21.77,0,0,0-20.791,15.234,16.4,16.4,0,0,0,1.026,32.747h39.53a16.4,16.4,0,0,0,1.026-32.747A21.77,21.77,0,0,0,322,312.979h0Z" transform="translate(-258 -261)"/>
  <rect id="圆角矩形_1" data-name="圆角矩形 1" class="cls-2" width="100" height="26" rx="4" ry="4"/>
  <path id="形状_1" data-name="形状 1" class="cls-3" d="M352,265a2.027,2.027,0,0,1,2,2v16a2.027,2.027,0,0,1-2,2H264a2.027,2.027,0,0,1-2-2V267a2.027,2.027,0,0,1,2-2h88m0-4H264a6.018,6.018,0,0,0-6,6v16a6.018,6.018,0,0,0,6,6h88a6.018,6.018,0,0,0,6-6V267a6.018,6.018,0,0,0-6-6h0Zm-69,14a4,4,0,1,1-4-4A4,4,0,0,1,283,275Zm0,36a4,4,0,1,1-4-4A4,4,0,0,1,283,311Zm0,36a4,4,0,1,1-4-4A4,4,0,0,1,283,347Zm4.274,10H264a2.027,2.027,0,0,1-2-2V339a2.027,2.027,0,0,1,2-2h20.784a19.03,19.03,0,0,1,2.49-4H264a6.018,6.018,0,0,0-6,6v16a6.018,6.018,0,0,0,6,6h27.78A19.094,19.094,0,0,1,287.274,357ZM352,297H264a6.018,6.018,0,0,0-6,6v16a6.018,6.018,0,0,0,6,6h35.642A24.576,24.576,0,0,1,302,321H264a2.027,2.027,0,0,1-2-2V303a2.027,2.027,0,0,1,2-2h88a2.027,2.027,0,0,1,2,2v16a2.027,2.027,0,0,1-2,2H342a24.576,24.576,0,0,1,2.362,4H352a6.018,6.018,0,0,0,6-6V303A6.018,6.018,0,0,0,352,297Z" transform="translate(-258 -261)"/>
</svg>
